<svg width="24" height="24" viewBox="0 0 24 24" fill="none" xmlns="http://www.w3.org/2000/svg">
<path d="M4.89674 23.6213C1.92674 20.7413 0.881741 17.4736 1.76174 13.8182C2.58674 10.1628 5.44674 5.70437 10.3417 0.442837L10.8367 0.858221C7.31674 4.84591 5.44674 8.33514 5.22674 11.3259C4.95174 14.3721 6.27174 17.3629 9.18674 20.2983L4.89674 23.6213ZM16.4467 23.6213C13.4767 20.7413 12.4317 17.4736 13.3117 13.8182C14.1367 10.1628 16.9967 5.70437 21.8917 0.442837L22.3867 0.858221C18.8667 4.84591 16.9967 8.33514 16.7767 11.3259C16.5017 14.3721 17.8217 17.3629 20.7367 20.2983L16.4467 23.6213Z" fill="#BCBCBC"/>
</svg>
