<svg width="68" height="68" viewBox="0 0 68 68" fill="none" xmlns="http://www.w3.org/2000/svg">
<path d="M41.0342 5.61294C44.5278 5.61294 54.0064 4.61508 55.0083 15.0913C55.2946 18.0849 55.6013 26.8357 54.5055 34.0488C54.0343 40.8617 56.0918 41.7768 59.5 44.5253C54.0732 45.4122 50.8374 45.8385 48.5203 41.0329C47.8192 38.969 47.1596 37.0423 47.5222 34.0488C48.4505 26.3843 49.016 21.5769 48.5203 15.5902C47.9421 8.60615 41.0342 5.61294 41.0342 5.61294Z" fill="#CC9F75"/>
<path d="M34.0549 25.568L33.5481 33.55C31.5518 24.5702 23.5688 26.0669 19.5751 33.0511C14.5854 42.5298 24.0668 55.0017 36.0435 51.5096C41.9797 49.1016 45.2812 48.2465 51.0157 49.0152C60.9983 51.0107 58.0039 62.9837 51.0157 62.4848C43.5376 60.4896 49.5265 52.0087 54.0102 57.4961C54.5055 53.0062 50.5247 47.5188 42.0324 52.0084C37.0809 54.9057 34.6666 56.1301 31.5518 56.9972C17.5812 60.4893 9.6721 49.506 8.59754 42.0309C7.10512 28.0626 23.0829 17.0871 32.5577 27.0646C33.1697 26.7627 33.4567 26.4343 34.0549 25.568Z" fill="#CC9F75"/>
<path d="M15.5831 9.60381C10.5902 14.5926 14.5808 19.0825 18.0767 19.0825C22.0692 19.0825 25.5661 14.5926 21.0745 10.1026C27.0597 7.10941 36.0512 7.60845 37.544 15.5902C38.5466 22.0759 37.9695 27.382 37.0412 35.0465C36.5503 38.0401 36.8429 38.969 37.544 41.0329C39.8611 45.8385 42.5978 45.9108 48.0246 45.0239C44.6164 42.2754 43.058 40.8617 43.5292 34.0488C44.625 26.8357 44.8971 22.2944 44.032 15.0913C42.0401 4.61538 25.0655 2.61974 15.5831 9.60381Z" fill="#CC9F75"/>
</svg>
